<svg width="27" height="23" viewBox="0 0 27 23" fill="none" xmlns="http://www.w3.org/2000/svg">
<g clip-path="url(#clip0_2_632)">
<path d="M18.5265 1.89566C19.9182 1.89941 21.2517 2.4 22.2357 3.2881C23.2198 4.17619 23.7745 5.37963 23.7786 6.63559V16.1144C23.7745 17.3704 23.2198 18.5738 22.2357 19.4619C21.2517 20.35 19.9182 20.8506 18.5265 20.8543H8.02316C6.63147 20.8506 5.29797 20.35 4.31388 19.4619C3.3298 18.5738 2.77511 17.3704 2.77095 16.1144V6.63559C2.77511 5.37963 3.3298 4.17619 4.31388 3.2881C5.29797 2.4 6.63147 1.89941 8.02316 1.89566H18.5265ZM18.5265 0H8.02316C3.97906 0 0.67041 2.98594 0.67041 6.63559V16.1144C0.67041 19.7641 3.97906 22.75 8.02316 22.75H18.5265C22.5705 22.75 25.8792 19.7641 25.8792 16.1144V6.63559C25.8792 2.98594 22.5705 0 18.5265 0Z" fill="white"/>
<path d="M20.1021 6.63574C19.7904 6.63574 19.4858 6.55235 19.2267 6.39611C18.9676 6.23988 18.7657 6.01781 18.6464 5.758C18.5271 5.49818 18.496 5.21229 18.5568 4.93647C18.6175 4.66066 18.7677 4.4073 18.988 4.20845C19.2083 4.0096 19.4891 3.87418 19.7947 3.81931C20.1003 3.76445 20.4171 3.79261 20.705 3.90023C20.9929 4.00784 21.2389 4.19009 21.4121 4.42392C21.5852 4.65774 21.6776 4.93265 21.6776 5.21387C21.678 5.4007 21.6376 5.58578 21.5586 5.75847C21.4795 5.93116 21.3635 6.08807 21.2171 6.22018C21.0707 6.35229 20.8968 6.45701 20.7055 6.52833C20.5142 6.59964 20.3091 6.63614 20.1021 6.63574ZM13.2749 7.58332C14.1059 7.58332 14.9182 7.80571 15.6092 8.22236C16.3001 8.63901 16.8387 9.23122 17.1566 9.92408C17.4747 10.617 17.5578 11.3794 17.3958 12.1149C17.2337 12.8505 16.8335 13.5261 16.2459 14.0564C15.6583 14.5867 14.9096 14.9478 14.0946 15.0941C13.2795 15.2404 12.4347 15.1654 11.6669 14.8784C10.8992 14.5914 10.243 14.1054 9.7813 13.4818C9.31963 12.8582 9.07321 12.1251 9.07321 11.3752C9.07439 10.3698 9.51745 9.40599 10.3052 8.69511C11.0929 7.98424 12.1609 7.5844 13.2749 7.58332ZM13.2749 5.68766C12.0284 5.68766 10.8099 6.02122 9.77355 6.64617C8.73715 7.27112 7.92938 8.15939 7.45238 9.19864C6.97539 10.2379 6.85058 11.3815 7.09375 12.4847C7.33692 13.588 7.93715 14.6014 8.81852 15.3968C9.69991 16.1922 10.8229 16.7339 12.0453 16.9534C13.2678 17.1728 14.535 17.0602 15.6866 16.6297C16.8381 16.1992 17.8225 15.4703 18.515 14.535C19.2075 13.5997 19.577 12.5 19.577 11.3752C19.577 9.86674 18.9131 8.4201 17.7311 7.35349C16.5493 6.28687 14.9463 5.68766 13.2749 5.68766Z" fill="white"/>
</g>
<defs>
<clipPath id="clip0_2_632">
<rect width="25.6089" height="23" fill="white" transform="translate(0.67041)"/>
</clipPath>
</defs>
</svg>
