<svg width="25" height="24" viewBox="0 0 25 24" fill="none" xmlns="http://www.w3.org/2000/svg">
<g clip-path="url(#clip0_2_637)">
<path d="M12.3234 0C5.98967 0 0.854126 5.37201 0.854126 11.9973C0.854126 16.9087 3.68047 21.1292 7.7203 22.9877C7.68958 22.1522 7.71518 21.1453 7.91999 20.2348C8.14016 19.26 9.3946 13.6952 9.3946 13.6952C9.3946 13.6952 9.02595 12.9293 9.02595 11.7992C9.02595 10.021 10.009 8.6927 11.2379 8.6927C12.2824 8.6927 12.7841 9.51216 12.7841 10.4923C12.7841 11.5903 12.1134 13.2292 11.7704 14.7503C11.4836 16.025 12.3797 17.0587 13.5829 17.0587C15.7539 17.0587 17.2183 14.1397 17.2183 10.6798C17.2183 8.04999 15.5234 6.08436 12.4463 6.08436C8.96963 6.08436 6.79867 8.79982 6.79867 11.8313C6.79867 12.8757 7.09563 13.6148 7.55646 14.1825C7.76639 14.445 7.79711 14.5521 7.7203 14.852C7.66398 15.0716 7.54109 15.6019 7.48477 15.8161C7.40797 16.1214 7.17244 16.2285 6.91131 16.116C5.3087 15.4305 4.56115 13.5988 4.56115 11.5314C4.56115 8.12497 7.31068 4.03838 12.7585 4.03838C17.1363 4.03838 20.019 7.35371 20.019 10.9101C20.019 15.6179 17.5152 19.1314 13.8287 19.1314C12.5896 19.1314 11.4273 18.4298 11.0279 17.6371C11.0279 17.6371 10.3623 20.4008 10.219 20.9364C9.9783 21.863 9.50212 22.7842 9.06692 23.5073C10.1226 23.833 11.2175 23.999 12.3182 24C18.6519 24 23.7875 18.628 23.7875 12.0027C23.7875 5.37737 18.657 0 12.3234 0Z" fill="white"/>
</g>
<defs>
<clipPath id="clip0_2_637">
<rect width="23.8889" height="24" fill="white" transform="translate(0.555542)"/>
</clipPath>
</defs>
</svg>
