<svg width="25" height="21" viewBox="0 0 25 21" fill="none" xmlns="http://www.w3.org/2000/svg">
<path d="M24.1556 2.39942C23.268 2.81199 22.3289 3.0838 21.3679 3.20626C22.3779 2.57365 23.1373 1.56863 23.5039 0.379696C22.5491 0.976961 21.5063 1.39603 20.42 1.61895C19.9626 1.10613 19.4124 0.698161 18.8031 0.419851C18.1937 0.14154 17.5377 -0.00130113 16.8752 8.93028e-06C14.1925 8.93028e-06 12.0216 2.28868 12.0216 5.10997C12.0196 5.5024 12.0617 5.89366 12.1468 6.2754C10.2232 6.17893 8.33948 5.65397 6.61635 4.73411C4.89322 3.81425 3.36854 2.51974 2.13986 0.933407C1.70881 1.71077 1.48085 2.59773 1.4798 3.50157C1.4798 5.27344 2.34394 6.83966 3.64879 7.75723C2.8757 7.73761 2.11846 7.51872 1.44135 7.11915V7.18243C1.44135 9.66094 3.11738 11.7229 5.33567 12.1922C4.91852 12.3112 4.48866 12.3714 4.05695 12.3715C3.75062 12.3721 3.44499 12.3403 3.1445 12.2766C3.76118 14.3068 5.55602 15.7834 7.68212 15.8256C5.95451 17.2499 3.83345 18.0197 1.65234 18.0141C1.26518 18.0135 0.878382 17.9888 0.493896 17.9402C2.71276 19.4559 5.29201 20.2577 7.92465 20.25C16.8648 20.25 21.749 12.4611 21.749 5.70587C21.749 5.48438 21.7436 5.2629 21.7337 5.04669C22.6817 4.32531 23.5018 3.42886 24.1556 2.39942Z" fill="white"/>
</svg>
